<svg width="301" height="74" viewBox="0 0 301 74" fill="none" xmlns="http://www.w3.org/2000/svg">
<path d="M51.9628 73.0347L36.1595 47.1882L21.1686 73.0347H0.34375L25.8948 34.1173L3.29763 0H24.4179L36.9719 20.8249L49.0828 0H70.1292L47.8274 34.5604L73.083 73.0347H51.9628Z" fill="white"/>
<path d="M90.1306 73.0347V16.394H75.7305V0H123.14V16.394H108.814V73.0347H90.1306Z" fill="white"/>
<path d="M163.8 73.0347L146.889 49.4775H146.668V73.0347H128.797V0H152.649C160.256 0 166.09 0.960011 169.93 2.65849C177.831 6.20315 183.37 14.7694 183.37 25.1818C183.37 36.702 176.428 46.2282 165.203 48.1482L185.068 73.0347H163.726H163.8ZM153.683 36.702C161.068 36.702 165.647 33.2311 165.647 26.2157C165.647 19.8648 160.92 16.3202 153.905 16.3202H146.816V36.6281H153.757L153.683 36.702Z" fill="white"/>
<path d="M267.685 73.4024V16.7617H253.285V0.367676H300.695V16.7617H286.369V73.4024H267.685Z" fill="white"/>
<path d="M190.793 44.0835V27.9849H247.286V44.0835H190.793Z" fill="white"/>
<path d="M190.793 73.2544V57.1558H247.286V73.2544H190.793Z" fill="white"/>
<path d="M190.793 16.3189V0.220215H247.286V16.3189H190.793Z" fill="white"/>
<path fill-rule="evenodd" clip-rule="evenodd" d="M215.312 71.9259V1.91895H222.697V71.9259H215.312Z" fill="white"/>
</svg>
